<svg xmlns="http://www.w3.org/2000/svg" width="40" height="40" viewBox="0 0 40 40">
  <circle cx="20" cy="20" r="19" fill="none" stroke="#d5cfc7" stroke-width="1"/>
  <path d="M29 14.7c-.6.3-1.2.5-1.9.5.7-.4 1.2-1 1.4-1.8-.6.4-1.3.7-2.1.8-.6-.6-1.5-1-2.4-1-1.8 0-3.3 1.5-3.3 3.3 0 .3 0 .5.1.7-2.7-.1-5.2-1.4-6.8-3.4-.3.5-.5 1-.5 1.6 0 1.1.6 2.1 1.5 2.7-.5 0-1-.2-1.5-.4v.1c0 1.6 1.1 2.9 2.6 3.2-.3.1-.6.1-.9.1-.2 0-.4 0-.6-.1.4 1.3 1.6 2.3 3.1 2.3-1.1.9-2.5 1.4-4.1 1.4h-.8c1.5.9 3.2 1.5 5 1.5 6 0 9.3-5 9.3-9.3v-.4c.7-.5 1.3-1.1 1.7-1.8z" fill="none" stroke="#666" stroke-width="1.5"/>
</svg>
